# This file uses centimeters as units for non-parametric coordinates.

mtllib back.mtl
g default
v -15.000000 30.000000 -15.000000
v -15.000000 0.000000 -15.000000
v 15.000000 30.000000 -15.000000
v 15.000000 0.000000 -15.000000
vt 0.000000 0.000000
vt 1.000000 0.000000
vt 0.000000 1.000000
vt 1.000000 1.000000
vn 0.000000 0.000000 1.000000
vn 0.000000 0.000000 1.000000
vn 0.000000 0.000000 1.000000
vn 0.000000 0.000000 1.000000
s 1
g pPlane4
usemtl lambert4SG
f 1/1/1 2/2/2 3/3/3
f 3/3/3 2/2/2 4/4/4
